<svg id="Layer_1" data-name="Layer 1" xmlns="http://www.w3.org/2000/svg" viewBox="0 0 93.69 116.39"><defs><style>.cls-1{fill:#8990d0;}</style></defs><path class="cls-1" d="M682.83,441.7l-.89-.43c-.12,0-2.94-1.43-7.16-4a125.83,125.83,0,0,1-15.67-11.14,79,79,0,0,1-15.8-17.41c-4.87-7.56-7.33-15.29-7.33-23V332l1.46-.43a152.77,152.77,0,0,1,21.67-4.6,174.46,174.46,0,0,1,47.44,0,152.93,152.93,0,0,1,21.66,4.6h0l1.46.43v53.8c0,7.69-2.46,15.42-7.32,23a79.33,79.33,0,0,1-15.81,17.41,126.6,126.6,0,0,1-15.66,11.14c-4.25,2.56-7,3.93-7.17,4Zm-44.58-108v52.1c0,7.25,2.35,14.56,7,21.75a77.09,77.09,0,0,0,15.35,16.9A123.62,123.62,0,0,0,676,435.35c3.73,2.25,6.32,3.55,6.88,3.83.55-.28,3.12-1.57,6.87-3.83a123.62,123.62,0,0,0,15.38-10.94,77.41,77.41,0,0,0,15.36-16.9c4.62-7.19,7-14.5,7-21.75v-52.1a150.8,150.8,0,0,0-21.17-4.48,173.06,173.06,0,0,0-46.81,0A150.8,150.8,0,0,0,638.25,333.66Z" transform="translate(-635.98 -325.31)"/><rect class="cls-1" x="646" y="367" width="74" height="6" transform="translate(-174.3 -699.9) rotate(45)"/><rect class="cls-1" x="647" y="368" width="74" height="6" transform="translate(794.02 -175.64) rotate(135)"/></svg>